<svg width="452" height="75" viewBox="0 0 452 75" fill="none" xmlns="http://www.w3.org/2000/svg">
<path d="M230.51 51.646C232.332 44.9662 226 32.2605 226 32.2605C226 32.2605 219.668 45.1077 221.49 51.7875M230.51 51.646C229.529 55.2439 226 57.4277 226 57.4277M230.51 51.646C230.51 51.646 233.546 45.8441 236.756 43.3137C240.648 40.2451 248.726 38.8925 248.726 38.8925C248.726 38.8925 250.113 43.3137 244.042 49.7755M226 57.4277L231.551 56.4074M226 57.4277C226 57.4277 227.508 64.351 230.51 67.4606C233.447 70.5021 234.847 70.5215 237.103 71.7118C239.358 72.9022 246.47 74.9427 248.032 73.4123C249.593 71.8819 246.47 66.7804 246.47 66.7804C246.47 66.7804 255.838 70.6915 258.267 68.6509C260.695 66.6103 256.532 63.8896 254.45 62.6992C252.369 61.5089 242.307 58.1079 242.307 58.1079M226 57.4277C226 57.4277 229.531 59.9295 232.072 60.9987C234.654 62.0855 239.011 62.8693 239.011 62.8693M226 57.4277C226 57.4277 222.471 55.3854 221.49 51.7875M226 57.4277L220.449 56.5489M226 57.4277C226 57.4277 224.492 64.4925 221.49 67.6021C218.553 70.6436 217.153 70.663 214.897 71.8533C212.642 73.0436 205.53 75.0842 203.968 73.5538C202.407 72.0233 205.53 66.9219 205.53 66.9219C205.53 66.9219 196.162 70.833 193.733 68.7924C191.305 66.7518 195.468 64.031 197.55 62.8407C199.631 61.6504 209.693 58.2494 209.693 58.2494M226 57.4277C226 57.4277 222.469 60.071 219.928 61.1402C217.346 62.227 212.989 63.0108 212.989 63.0108M244.042 49.7755C240.052 52.6663 236.429 53.8175 231.551 56.4074M244.042 49.7755C250.113 46.8847 251.492 41.0423 262.083 36.6818C270.757 33.1108 273.186 38.5524 273.186 38.5524C273.186 38.5524 272.492 43.1436 266.073 46.3745C259.655 49.6055 244.736 53.0064 244.736 53.0064M231.551 56.4074L242.307 58.1079M231.551 56.4074L244.736 53.0064M242.307 58.1079C242.307 58.1079 268.328 61.5089 266.073 55.3871C263.818 49.2654 244.868 53.4762 244.736 53.0064M242.307 58.1079C242.307 58.1079 254.625 60.3041 262.604 60.9987C267.455 61.4211 275.056 61.6676 275.056 61.6676M287.758 60.9987C296.836 60.4011 303.024 60.8287 311.004 59.4683M287.758 60.9987C289.272 61.385 290.111 61.6469 291.574 62.1891C297.656 64.4426 305.453 71.2017 305.453 71.2017M287.758 60.9987L283.421 61.2349M287.758 60.9987C293.449 59.8698 297.007 60.3804 302.33 58.1079C307.327 55.9747 311.022 54.894 313.78 50.2857C315.716 47.0483 316.035 40.933 316.035 40.933M311.004 59.4683L326.27 52.1562M311.004 59.4683C315.136 63.622 318.14 65.5576 323.668 67.6306C330.967 70.3676 336.043 71.0474 343.618 69.1611C349.021 67.8153 356.281 62.6992 356.281 62.6992M311.004 59.4683C317.582 56.6838 321.716 55.7394 328.872 55.3871C334.649 55.1027 338.051 55.2068 343.618 56.7475C348.896 58.2084 356.281 62.6992 356.281 62.6992M311.004 59.4683C319.83 61.77 324.965 62.6026 334.076 63.2094C342.73 63.7856 356.281 62.6992 356.281 62.6992M326.27 52.1562L348.995 42.4635M326.27 52.1562C326.27 52.1562 328.172 42.5263 331.301 37.192C334.41 31.8897 336.119 27.8004 341.883 25.4586C344.497 24.3964 348.995 24.0982 348.995 24.0982M326.27 52.1562C326.27 52.1562 337.469 47.3269 342.75 41.9533C345.985 38.6622 348.724 36.9017 349.689 32.4306C350.379 29.2365 348.995 24.0982 348.995 24.0982M326.27 52.1562C326.27 52.1562 336.266 43.7861 341.189 37.192C344.757 32.4124 348.995 24.0982 348.995 24.0982M348.995 42.4635C352.247 44.3893 353.662 46.3959 357.322 47.3948C360.977 48.3923 363.333 48.1972 367.037 47.3948C370.678 46.6063 375.711 43.4838 375.711 43.4838M348.995 42.4635L354.373 39.8277M348.995 42.4635C354.551 42.2643 357.668 41.1771 363.221 41.4432C368.13 41.6785 375.711 43.4838 375.711 43.4838M358.71 37.192C361.555 36.1958 367.037 34.6412 367.037 34.6412M358.71 37.192C359.992 33.2612 361.197 29.8231 362.7 25.9686C364.204 22.1142 371.721 17.2963 371.721 17.2963C371.721 17.2963 372.063 21.0509 371.721 23.418C371.237 26.7662 370.832 28.8682 368.772 31.5804C366.28 34.8605 363.047 35.3214 358.71 37.192ZM358.71 37.192C356.61 38.2213 354.373 39.8277 354.373 39.8277M367.037 34.6412C367.037 34.6412 378.45 33.2284 384.905 35.6615C389.588 37.4268 391.85 38.9051 395.314 42.4635M367.037 34.6412L384.732 28.1794M395.314 42.4635C401.614 44.1237 409.886 44.1639 411.447 46.7146C412.439 48.3353 411.249 49.9695 409.886 51.3059C407.73 53.419 406.169 52.3262 403.12 52.3262M395.314 42.4635C397.956 45.9167 400.478 48.873 403.12 52.3262M395.314 42.4635C393.688 47.3777 393.123 50.4729 391.497 55.3871M395.314 42.4635C391.452 44.1237 385.773 47.0547 385.773 47.0547C385.773 47.0547 379.833 50.4178 381.089 53.1765C381.908 54.9766 383.468 55.445 385.426 55.8973C387.626 56.4058 389.262 55.7192 391.497 55.3871M403.12 52.3262C401.901 54.7169 400.868 56.3883 398.436 57.5978C396.528 58.5469 394.546 56.3168 391.497 55.3871M384.732 28.1794L393.059 18.9967M384.732 28.1794C384.732 28.1794 393.092 27.8943 398.436 28.1794C403.539 28.4515 411.447 29.5398 411.447 29.5398M393.059 18.9967C387.368 15.0787 379.18 11.6846 379.18 8.62363C379.18 6.48512 378.429 5.46997 380.395 4.54258C382.606 3.49945 388.028 5.22278 388.028 5.22278M393.059 18.9967L395.314 11.6846M393.059 18.9967C399.833 17.8014 406.243 18.3164 408.672 16.786C410.885 15.3915 413.513 13.4085 413.355 10.8343C413.2 8.29619 412.17 6.7685 409.886 5.56287C407.944 4.5377 404.335 4.54258 404.335 4.54258M393.059 18.9967C395.089 17.8754 397.054 15.7852 399.651 14.4053C401.951 13.1829 405.375 12.1948 405.375 12.1948M393.059 18.9967C392.41 17.6193 392.435 15.7613 391.497 13.8951C390.701 12.3088 388.895 10.1542 388.895 10.1542M388.028 5.22278C388.028 5.22278 392.604 9.29394 395.314 11.6846M388.028 5.22278C388.028 5.22278 389.332 1.11454 393.059 1.14149C394.75 1.15372 399.166 0.379078 401.906 2.33207C403.276 3.30858 404.335 4.54258 404.335 4.54258M395.314 11.6846L404.335 4.54258M428.795 43.1437C428.795 43.1437 427.334 51.0781 429.836 55.047C431.98 58.4487 438.336 60.9987 438.336 60.9987C438.336 60.9987 441.525 55.019 440.418 51.3059C439.435 48.0079 437.599 46.3164 434.52 44.6741C432.484 43.5883 428.795 43.1437 428.795 43.1437ZM428.795 43.1437C428.795 43.1437 432.451 46.6 434.173 49.2652C435.73 51.675 437.295 55.8973 437.295 55.8973M428.795 43.1437C428.795 43.1437 424.723 38.3179 421.335 35.6615C417.948 33.0052 411.447 29.5398 411.447 29.5398M411.447 29.5398C411.447 29.5398 429.4 32.0608 440.418 29.5398C444.653 28.5707 451 26.1388 451 26.1388M411.447 29.5398C416.941 28.2361 421.875 26.2545 428.795 25.4586C437.412 24.4675 443.887 25.8554 451 26.1388M411.447 29.5398C411.447 29.5398 435.737 38.2264 446.316 31.2401C449.614 29.0624 451 26.1388 451 26.1388M275.056 61.6676C275.056 61.6676 284.104 70.3736 291.574 71.8819C296.889 72.9549 305.453 71.2017 305.453 71.2017M275.056 61.6676L283.421 61.2349M275.056 61.6676C275.056 61.6676 284.524 66.0209 290.881 67.9707C296.432 69.6737 305.453 71.2017 305.453 71.2017M283.421 61.2349C288.773 55.7636 290.606 51.3015 297.126 47.2248C303.7 43.1136 316.035 40.933 316.035 40.933M283.421 61.2349C290.196 57.2246 294.618 55.99 301.289 51.8161C307.339 48.0306 316.035 40.933 316.035 40.933M375.711 43.4838C375.711 43.4838 372.402 39.9577 369.639 38.7224C364.2 36.2905 354.373 39.8277 354.373 39.8277M221.49 51.7875C221.49 51.7875 218.454 45.9856 215.244 43.4552C211.352 40.3866 203.274 39.0339 203.274 39.0339C203.274 39.0339 201.887 43.4551 207.958 49.917M207.958 49.917C211.948 52.8078 215.571 53.959 220.449 56.5489M207.958 49.917C201.887 47.0262 200.508 41.1837 189.917 36.8233C181.243 33.2523 178.814 38.6938 178.814 38.6938C178.814 38.6938 179.508 43.2851 185.927 46.516C192.345 49.7469 207.264 53.1479 207.264 53.1479M220.449 56.5489L209.693 58.2494M220.449 56.5489L207.264 53.1479M209.693 58.2494C209.693 58.2494 183.672 61.6504 185.927 55.5286C188.182 49.4068 207.132 53.6177 207.264 53.1479M209.693 58.2494C209.693 58.2494 197.375 60.4455 189.396 61.1402C184.545 61.5626 176.944 61.809 176.944 61.809M164.242 61.1402C155.164 60.5425 148.976 60.9702 140.996 59.6098M164.242 61.1402C162.728 61.5265 161.889 61.7884 160.426 62.3306C154.344 64.5841 146.547 71.3431 146.547 71.3431M164.242 61.1402L168.579 61.3764M164.242 61.1402C158.551 60.0113 154.993 60.5219 149.67 58.2494C144.673 56.1162 140.978 55.0355 138.221 50.4271C136.284 47.1898 135.965 41.0745 135.965 41.0745M140.996 59.6098L125.73 52.2977M140.996 59.6098C136.864 63.7634 133.86 65.6991 128.332 67.7721C121.033 70.5091 115.957 71.1888 108.382 69.3026C102.979 67.9568 95.7186 62.8407 95.7186 62.8407M140.996 59.6098C134.418 56.8253 130.284 55.8809 123.128 55.5286C117.351 55.2442 113.949 55.3483 108.382 56.889C103.104 58.3499 95.7186 62.8407 95.7186 62.8407M140.996 59.6098C132.17 61.9115 127.035 62.7441 117.924 63.3509C109.27 63.9271 95.7186 62.8407 95.7186 62.8407M125.73 52.2977L103.005 42.605M125.73 52.2977C125.73 52.2977 123.828 42.6678 120.699 37.3335C117.59 32.0312 115.881 27.9419 110.117 25.6001C107.503 24.5379 103.005 24.2397 103.005 24.2397M125.73 52.2977C125.73 52.2977 114.531 47.4684 109.25 42.0948C106.015 38.8036 103.276 37.0432 102.311 32.5721C101.621 29.378 103.005 24.2397 103.005 24.2397M125.73 52.2977C125.73 52.2977 115.734 43.9275 110.811 37.3335C107.243 32.5539 103.005 24.2397 103.005 24.2397M103.005 42.605C99.7528 44.5308 98.3378 46.5374 94.6777 47.5363C91.0229 48.5338 88.6675 48.3387 84.963 47.5363C81.3223 46.7477 76.2891 43.6253 76.2891 43.6253M103.005 42.605L97.6268 39.9692M103.005 42.605C97.4494 42.4057 94.3318 41.3186 88.7795 41.5847C83.8696 41.8199 76.2891 43.6253 76.2891 43.6253M93.2899 37.3335C90.4445 36.3373 84.963 34.7827 84.963 34.7827M93.2899 37.3335C92.0085 33.4027 90.8034 29.9645 89.2999 26.1101C87.7965 22.2557 80.2791 17.4377 80.2791 17.4377C80.2791 17.4377 79.9371 21.1924 80.2791 23.5595C80.7629 26.9077 81.1677 29.0097 83.2282 31.7218C85.7204 35.002 88.953 35.4629 93.2899 37.3335ZM93.2899 37.3335C95.3901 38.3628 97.6268 39.9692 97.6268 39.9692M84.963 34.7827C84.963 34.7827 73.5495 33.3699 67.0948 35.803C62.4118 37.5683 60.1498 39.0465 56.6862 42.605M84.963 34.7827L67.2683 28.3209M56.6862 42.605C50.3857 44.2652 42.1141 44.3054 40.5528 46.8561C39.5608 48.4768 40.7507 50.111 42.1141 51.4474C44.2698 53.5605 45.8311 52.4677 48.8797 52.4677M56.6862 42.605C54.0441 46.0582 51.5219 49.0145 48.8797 52.4677M56.6862 42.605C58.3121 47.5192 58.8768 50.6144 60.5027 55.5286M56.6862 42.605C60.5478 44.2652 66.2275 47.1962 66.2275 47.1962C66.2275 47.1962 72.1667 50.5593 70.9113 53.318C70.0922 55.1181 68.5316 55.5865 66.5744 56.0388C64.3736 56.5473 62.7384 55.8606 60.5027 55.5286M48.8797 52.4677C50.0992 54.8584 51.132 56.5298 53.5636 57.7392C55.4719 58.6884 57.4541 56.4583 60.5027 55.5286M67.2683 28.3209L58.9414 19.1382M67.2683 28.3209C67.2683 28.3209 58.9077 28.0358 53.5636 28.3209C48.4613 28.593 40.5528 29.6813 40.5528 29.6813M58.9414 19.1382C64.6322 15.2201 72.8196 11.8261 72.8196 8.76512C72.8196 6.62661 73.5711 5.61146 71.6052 4.68407C69.3941 3.64093 63.9722 5.36426 63.9722 5.36426M58.9414 19.1382L56.6862 11.8261M58.9414 19.1382C52.1667 17.9429 45.7571 18.4579 43.3285 16.9275C41.1155 15.5329 38.4867 13.5499 38.6446 10.9758C38.8002 8.43767 39.8303 6.90999 42.1141 5.70436C44.0561 4.67918 47.6654 4.68407 47.6654 4.68407M58.9414 19.1382C56.9109 18.0169 54.9461 15.9267 52.3493 14.5468C50.0487 13.3243 46.6245 12.3363 46.6245 12.3363M58.9414 19.1382C59.59 17.7608 59.5655 15.9028 60.5027 14.0366C61.2994 12.4502 63.1049 10.2957 63.1049 10.2957M63.9722 5.36426C63.9722 5.36426 59.3961 9.43543 56.6862 11.8261M63.9722 5.36426C63.9722 5.36426 62.668 1.25603 58.9414 1.28298C57.2501 1.29521 52.8335 0.520563 50.0941 2.47355C48.7243 3.45007 47.6654 4.68407 47.6654 4.68407M56.6862 11.8261L47.6654 4.68407M23.2051 43.2852C23.2051 43.2852 24.6664 51.2196 22.1642 55.1885C20.0196 58.5902 13.6638 61.1402 13.6638 61.1402C13.6638 61.1402 10.4755 55.1605 11.5821 51.4474C12.5651 48.1494 14.4015 46.4579 17.4803 44.8155C19.5158 43.7298 23.2051 43.2852 23.2051 43.2852ZM23.2051 43.2852C23.2051 43.2852 19.5494 46.7415 17.8273 49.4067C16.2702 51.8165 14.7047 56.0388 14.7047 56.0388M23.2051 43.2852C23.2051 43.2852 27.2773 38.4593 30.6646 35.803C34.052 33.1467 40.5528 29.6813 40.5528 29.6813M40.5528 29.6813C40.5528 29.6813 22.5997 32.2023 11.5821 29.6813C7.34696 28.7122 1 26.2803 1 26.2803M40.5528 29.6813C35.0594 28.3775 30.1247 26.396 23.2051 25.6001C14.5884 24.6089 8.11257 25.9969 1 26.2803M40.5528 29.6813C40.5528 29.6813 16.2632 38.3678 5.68389 31.3816C2.38606 29.2039 1 26.2803 1 26.2803M176.944 61.809C176.944 61.809 167.896 70.5151 160.426 72.0233C155.111 73.0964 146.547 71.3431 146.547 71.3431M176.944 61.809L168.579 61.3764M176.944 61.809C176.944 61.809 167.476 66.1624 161.12 68.1122C155.568 69.8152 146.547 71.3431 146.547 71.3431M168.579 61.3764C163.227 55.9051 161.394 51.443 154.874 47.3663C148.3 43.2551 135.965 41.0745 135.965 41.0745M168.579 61.3764C161.804 57.3661 157.382 56.1315 150.711 51.9576C144.661 48.1721 135.965 41.0745 135.965 41.0745M76.2891 43.6253C76.2891 43.6253 79.5981 40.0992 82.3608 38.8639C87.7997 36.432 97.6268 39.9692 97.6268 39.9692" stroke="black" stroke-linecap="round" stroke-linejoin="round"/>
</svg>
