<svg width="452" height="75" viewBox="0 0 452 75" fill="none" xmlns="http://www.w3.org/2000/svg">
<path d="M221.49 23.4555C219.668 30.1354 226 42.841 226 42.841C226 42.841 232.332 29.9939 230.51 23.314M221.49 23.4555C222.471 19.8577 226 17.6739 226 17.6739M221.49 23.4555C221.49 23.4555 218.454 29.2575 215.244 31.7878C211.352 34.8564 203.274 36.2091 203.274 36.2091C203.274 36.2091 201.887 31.7879 207.958 25.3261M226 17.6739L220.449 18.6941M226 17.6739C226 17.6739 224.492 10.7506 221.49 7.64097C218.553 4.59942 217.153 4.5801 214.897 3.38975C212.642 2.19941 205.53 0.158826 203.968 1.68927C202.407 3.2197 205.53 8.32117 205.53 8.32117C205.53 8.32117 196.162 4.41005 193.733 6.45063C191.305 8.49122 195.468 11.212 197.55 12.4023C199.631 13.5927 209.693 16.9937 209.693 16.9937M226 17.6739C226 17.6739 222.469 15.1721 219.928 14.1028C217.346 13.0161 212.989 12.2323 212.989 12.2323M226 17.6739C226 17.6739 229.529 19.7162 230.51 23.314M226 17.6739L231.551 18.5527M226 17.6739C226 17.6739 227.508 10.6091 230.51 7.49949C233.447 4.45794 234.847 4.43861 237.103 3.24827C239.358 2.05793 246.47 0.0173401 248.032 1.54778C249.593 3.07822 246.47 8.17968 246.47 8.17968C246.47 8.17968 255.838 4.26856 258.267 6.30915C260.695 8.34973 256.532 11.0705 254.45 12.2609C252.369 13.4512 242.307 16.8522 242.307 16.8522M226 17.6739C226 17.6739 229.531 15.0306 232.072 13.9613C234.654 12.8746 239.011 12.0908 239.011 12.0908M207.958 25.3261C211.948 22.4352 215.571 21.2841 220.449 18.6941M207.958 25.3261C201.887 28.2169 200.508 34.0593 189.917 38.4197C181.243 41.9908 178.814 36.5492 178.814 36.5492C178.814 36.5492 179.508 31.958 185.927 28.727C192.345 25.4961 207.264 22.0951 207.264 22.0951M220.449 18.6941L209.693 16.9937M220.449 18.6941L207.264 22.0951M209.693 16.9937C209.693 16.9937 183.672 13.5927 185.927 19.7144C188.182 25.8362 207.132 21.6253 207.264 22.0951M209.693 16.9937C209.693 16.9937 197.375 14.7975 189.396 14.1028C184.545 13.6804 176.944 13.434 176.944 13.434M164.242 14.1028C155.164 14.7005 148.976 14.2729 140.996 15.6333M164.242 14.1028C162.728 13.7166 161.889 13.4546 160.426 12.9125C154.344 10.6589 146.547 3.8999 146.547 3.8999M164.242 14.1028L168.579 13.8667M164.242 14.1028C158.551 15.2318 154.993 14.7211 149.67 16.9937C144.673 19.1269 140.978 20.2076 138.22 24.8159C136.284 28.0533 135.965 34.1685 135.965 34.1685M140.996 15.6333L125.73 22.9454M140.996 15.6333C136.864 11.4796 133.86 9.54393 128.332 7.47093C121.033 4.73392 115.957 4.05421 108.382 5.94049C102.979 7.28626 95.7186 12.4023 95.7186 12.4023M140.996 15.6333C134.418 18.4178 130.284 19.3621 123.128 19.7144C117.351 19.9988 113.949 19.8947 108.382 18.3541C103.104 16.8931 95.7186 12.4023 95.7186 12.4023M140.996 15.6333C132.17 13.3315 127.035 12.4989 117.924 11.8922C109.27 11.3159 95.7186 12.4023 95.7186 12.4023M125.73 22.9454L103.005 32.6381M125.73 22.9454C125.73 22.9454 123.828 32.5752 120.699 37.9096C117.59 43.2119 115.881 47.3012 110.117 49.643C107.503 50.7052 103.005 51.0034 103.005 51.0034M125.73 22.9454C125.73 22.9454 114.531 27.7747 109.25 33.1482C106.015 36.4394 103.276 38.1998 102.311 42.671C101.621 45.8651 103.005 51.0034 103.005 51.0034M125.73 22.9454C125.73 22.9454 115.734 31.3155 110.811 37.9096C107.243 42.6891 103.005 51.0034 103.005 51.0034M103.005 32.6381C99.7527 30.7122 98.3378 28.7056 94.6777 27.7067C91.0229 26.7093 88.6675 26.9044 84.963 27.7067C81.3222 28.4953 76.2891 31.6178 76.2891 31.6178M103.005 32.6381L97.6268 35.2738M103.005 32.6381C97.4493 32.8373 94.3318 33.9244 88.7795 33.6584C83.8696 33.4231 76.2891 31.6178 76.2891 31.6178M93.2899 37.9096C90.4445 38.9057 84.963 40.4603 84.963 40.4603M93.2899 37.9096C92.0084 41.8404 90.8034 45.2785 89.2999 49.1329C87.7964 52.9874 80.2791 57.8053 80.2791 57.8053C80.2791 57.8053 79.9371 54.0506 80.2791 51.6836C80.7629 48.3354 81.1677 46.2333 83.2282 43.5212C85.7203 40.241 88.953 39.7801 93.2899 37.9096ZM93.2899 37.9096C95.39 36.8803 97.6268 35.2738 97.6268 35.2738M84.963 40.4603C84.963 40.4603 73.5495 41.8732 67.0948 39.44C62.4118 37.6747 60.1497 36.1965 56.6862 32.6381M84.963 40.4603L67.2683 46.9222M56.6862 32.6381C50.3857 30.9779 42.1141 30.9377 40.5528 28.3869C39.5608 26.7663 40.7507 25.1321 42.1141 23.7956C44.2698 21.6825 45.8311 22.7753 48.8797 22.7753M56.6862 32.6381C54.044 29.1849 51.5218 26.2285 48.8797 22.7753M56.6862 32.6381C58.3121 27.7239 58.8768 24.6286 60.5027 19.7144M56.6862 32.6381C60.5478 30.9779 66.2274 28.0468 66.2274 28.0468C66.2274 28.0468 72.1667 24.6837 70.9113 21.9251C70.0922 20.1249 68.5316 19.6566 66.5744 19.2043C64.3735 18.6957 62.7383 19.3824 60.5027 19.7144M48.8797 22.7753C50.0992 20.3846 51.132 18.7133 53.5636 17.5038C55.4718 16.5547 57.4541 18.7847 60.5027 19.7144M67.2683 46.9222L58.9414 56.1048M67.2683 46.9222C67.2683 46.9222 58.9077 47.2072 53.5636 46.9222C48.4613 46.65 40.5528 45.5618 40.5528 45.5618M58.9414 56.1048C64.6321 60.0229 72.8196 63.4169 72.8196 66.4779C72.8196 68.6164 73.571 69.6316 71.6052 70.559C69.3941 71.6021 63.9722 69.8788 63.9722 69.8788M58.9414 56.1048L56.6862 63.4169M58.9414 56.1048C52.1667 57.3002 45.7571 56.7851 43.3284 58.3156C41.1154 59.7101 38.4867 61.6931 38.6445 64.2673C38.8002 66.8054 39.8303 68.3331 42.1141 69.5387C44.0561 70.5639 47.6654 70.559 47.6654 70.559M58.9414 56.1048C56.9109 57.2262 54.9461 59.3164 52.3493 60.6963C50.0487 61.9187 46.6245 62.9068 46.6245 62.9068M58.9414 56.1048C59.5899 57.4822 59.5654 59.3403 60.5027 61.2064C61.2994 62.7928 63.1048 64.9474 63.1048 64.9474M63.9722 69.8788C63.9722 69.8788 59.3961 65.8076 56.6862 63.4169M63.9722 69.8788C63.9722 69.8788 62.668 73.987 58.9414 73.9601C57.2501 73.9478 52.8335 74.7225 50.094 72.7695C48.7243 71.793 47.6654 70.559 47.6654 70.559M56.6862 63.4169L47.6654 70.559M23.2051 31.9579C23.2051 31.9579 24.6664 24.0234 22.1642 20.0545C20.0196 16.6528 13.6638 14.1028 13.6638 14.1028C13.6638 14.1028 10.4755 20.0826 11.5821 23.7956C12.5651 27.0937 14.4015 28.7851 17.4803 30.4275C19.5158 31.5133 23.2051 31.9579 23.2051 31.9579ZM23.2051 31.9579C23.2051 31.9579 19.5494 28.5016 17.8273 25.8363C16.2702 23.4265 14.7047 19.2043 14.7047 19.2043M23.2051 31.9579C23.2051 31.9579 27.2772 36.7837 30.6646 39.44C34.052 42.0964 40.5528 45.5618 40.5528 45.5618M40.5528 45.5618C40.5528 45.5618 22.5997 43.0407 11.5821 45.5618C7.34694 46.5309 0.999982 48.9628 0.999982 48.9628M40.5528 45.5618C35.0594 46.8655 30.1247 48.847 23.2051 49.643C14.5883 50.6341 8.11255 49.2462 0.999982 48.9628M40.5528 45.5618C40.5528 45.5618 16.2632 36.8752 5.68387 43.8614C2.38604 46.0392 0.999982 48.9628 0.999982 48.9628M176.944 13.434C176.944 13.434 167.896 4.72797 160.426 3.2197C155.111 2.14662 146.547 3.8999 146.547 3.8999M176.944 13.434L168.579 13.8667M176.944 13.434C176.944 13.434 167.476 9.08062 161.119 7.13083C155.568 5.42787 146.547 3.8999 146.547 3.8999M168.579 13.8667C163.227 19.338 161.394 23.8001 154.874 27.8768C148.3 31.988 135.965 34.1685 135.965 34.1685M168.579 13.8667C161.804 17.877 157.382 19.1115 150.711 23.2855C144.661 27.071 135.965 34.1685 135.965 34.1685M76.2891 31.6178C76.2891 31.6178 79.5981 35.1438 82.3608 36.3792C87.7997 38.8111 97.6268 35.2738 97.6268 35.2738M230.51 23.314C230.51 23.314 233.546 29.116 236.756 31.6464C240.648 34.7149 248.726 36.0676 248.726 36.0676C248.726 36.0676 250.113 31.6464 244.042 25.1846M244.042 25.1846C240.052 22.2937 236.429 21.1426 231.551 18.5527M244.042 25.1846C250.113 28.0754 251.492 33.9178 262.083 38.2783C270.757 41.8493 273.186 36.4077 273.186 36.4077C273.186 36.4077 272.492 31.8165 266.073 28.5855C259.655 25.3546 244.736 21.9536 244.736 21.9536M231.551 18.5527L242.307 16.8522M231.551 18.5527L244.736 21.9536M242.307 16.8522C242.307 16.8522 268.328 13.4512 266.073 19.573C263.818 25.6947 244.868 21.4838 244.736 21.9536M242.307 16.8522C242.307 16.8522 254.625 14.656 262.604 13.9613C267.455 13.539 275.056 13.2925 275.056 13.2925M287.758 13.9613C296.836 14.559 303.024 14.1314 311.004 15.4918M287.758 13.9613C289.272 13.5751 290.111 13.3132 291.574 12.771C297.656 10.5175 305.453 3.75841 305.453 3.75841M287.758 13.9613L283.421 13.7252M287.758 13.9613C293.449 15.0903 297.007 14.5796 302.33 16.8522C307.327 18.9854 311.022 20.0661 313.779 24.6744C315.716 27.9118 316.035 34.027 316.035 34.027M311.004 15.4918L326.27 22.8039M311.004 15.4918C315.136 11.3381 318.14 9.40244 323.668 7.32944C330.967 4.59244 336.043 3.91272 343.618 5.799C349.021 7.14478 356.281 12.2609 356.281 12.2609M311.004 15.4918C317.582 18.2763 321.716 19.2207 328.872 19.573C334.649 19.8573 338.051 19.7532 343.618 18.2126C348.896 16.7516 356.281 12.2609 356.281 12.2609M311.004 15.4918C319.83 13.19 324.965 12.3575 334.076 11.7507C342.73 11.1744 356.281 12.2609 356.281 12.2609M326.27 22.8039L348.995 32.4966M326.27 22.8039C326.27 22.8039 328.172 32.4337 331.301 37.7681C334.41 43.0704 336.119 47.1597 341.883 49.5015C344.497 50.5637 348.995 50.8619 348.995 50.8619M326.27 22.8039C326.27 22.8039 337.469 27.6332 342.75 33.0067C345.985 36.2979 348.724 38.0583 349.689 42.5295C350.379 45.7236 348.995 50.8619 348.995 50.8619M326.27 22.8039C326.27 22.8039 336.266 31.174 341.189 37.7681C344.757 42.5476 348.995 50.8619 348.995 50.8619M348.995 32.4966C352.247 30.5708 353.662 28.5641 357.322 27.5653C360.977 26.5678 363.333 26.7629 367.037 27.5653C370.678 28.3538 375.711 31.4763 375.711 31.4763M348.995 32.4966L354.373 35.1324M348.995 32.4966C354.551 32.6958 357.668 33.7829 363.221 33.5169C368.13 33.2816 375.711 31.4763 375.711 31.4763M358.71 37.7681C361.555 38.7642 367.037 40.3188 367.037 40.3188M358.71 37.7681C359.992 41.6989 361.197 45.137 362.7 48.9915C364.204 52.8459 371.721 57.6638 371.721 57.6638C371.721 57.6638 372.063 53.9091 371.721 51.5421C371.237 48.1939 370.832 46.0918 368.772 43.3797C366.28 40.0995 363.047 39.6386 358.71 37.7681ZM358.71 37.7681C356.61 36.7388 354.373 35.1324 354.373 35.1324M367.037 40.3188C367.037 40.3188 378.45 41.7317 384.905 39.2986C389.588 37.5332 391.85 36.055 395.314 32.4966M367.037 40.3188L384.732 46.7807M395.314 32.4966C401.614 30.8364 409.886 30.7962 411.447 28.2454C412.439 26.6248 411.249 24.9906 409.886 23.6541C407.73 21.541 406.169 22.6338 403.12 22.6338M395.314 32.4966C397.956 29.0434 400.478 26.0871 403.12 22.6338M395.314 32.4966C393.688 27.5824 393.123 24.4872 391.497 19.573M395.314 32.4966C391.452 30.8364 385.773 27.9053 385.773 27.9053C385.773 27.9053 379.833 24.5422 381.089 21.7836C381.908 19.9835 383.468 19.5151 385.426 19.0628C387.626 18.5542 389.262 19.2409 391.497 19.573M403.12 22.6338C401.901 20.2431 400.868 18.5718 398.436 17.3623C396.528 16.4132 394.546 18.6432 391.497 19.573M384.732 46.7807L393.059 55.9633M384.732 46.7807C384.732 46.7807 393.092 47.0658 398.436 46.7807C403.539 46.5085 411.447 45.4203 411.447 45.4203M393.059 55.9633C387.368 59.8814 379.18 63.2754 379.18 66.3364C379.18 68.475 378.429 69.4901 380.395 70.4175C382.606 71.4606 388.028 69.7373 388.028 69.7373M393.059 55.9633L395.314 63.2754M393.059 55.9633C399.833 57.1587 406.243 56.6437 408.672 58.1741C410.885 59.5686 413.513 61.5516 413.355 64.1258C413.2 66.6639 412.17 68.1916 409.886 69.3972C407.944 70.4224 404.335 70.4175 404.335 70.4175M393.059 55.9633C395.089 57.0847 397.054 59.1749 399.651 60.5548C401.951 61.7772 405.375 62.7653 405.375 62.7653M393.059 55.9633C392.41 57.3407 392.435 59.1988 391.497 61.0649C390.701 62.6513 388.895 64.8059 388.895 64.8059M388.028 69.7373C388.028 69.7373 392.604 65.6661 395.314 63.2754M388.028 69.7373C388.028 69.7373 389.332 73.8455 393.059 73.8186C394.75 73.8064 399.166 74.581 401.906 72.628C403.276 71.6515 404.335 70.4175 404.335 70.4175M395.314 63.2754L404.335 70.4175M428.795 31.8164C428.795 31.8164 427.334 23.882 429.836 19.9131C431.98 16.5114 438.336 13.9613 438.336 13.9613C438.336 13.9613 441.525 19.9411 440.418 23.6541C439.435 26.9522 437.599 28.6436 434.52 30.286C432.484 31.3718 428.795 31.8164 428.795 31.8164ZM428.795 31.8164C428.795 31.8164 432.451 28.3601 434.173 25.6948C435.73 23.285 437.295 19.0628 437.295 19.0628M428.795 31.8164C428.795 31.8164 424.723 36.6422 421.335 39.2986C417.948 41.9549 411.447 45.4203 411.447 45.4203M411.447 45.4203C411.447 45.4203 429.4 42.8992 440.418 45.4203C444.653 46.3894 451 48.8213 451 48.8213M411.447 45.4203C416.941 46.724 421.875 48.7056 428.795 49.5015C437.412 50.4926 443.887 49.1047 451 48.8213M411.447 45.4203C411.447 45.4203 435.737 36.7337 446.316 43.7199C449.614 45.8977 451 48.8213 451 48.8213M275.056 13.2925C275.056 13.2925 284.104 4.58648 291.574 3.07822C296.889 2.00513 305.453 3.75841 305.453 3.75841M275.056 13.2925L283.421 13.7252M275.056 13.2925C275.056 13.2925 284.524 8.93913 290.88 6.98934C296.432 5.28639 305.453 3.75841 305.453 3.75841M283.421 13.7252C288.773 19.1965 290.606 23.6586 297.126 27.7353C303.7 31.8465 316.035 34.027 316.035 34.027M283.421 13.7252C290.196 17.7355 294.618 18.97 301.289 23.144C307.339 26.9295 316.035 34.027 316.035 34.027M375.711 31.4763C375.711 31.4763 372.402 35.0024 369.639 36.2377C364.2 38.6696 354.373 35.1324 354.373 35.1324" stroke="black" stroke-linecap="round" stroke-linejoin="round"/>
</svg>
